<?xml version="1.0" encoding="UTF-8" standalone="no"?>
<!-- Created with Inkscape (http://www.inkscape.org/) -->

<svg
   xmlns:dc="http://purl.org/dc/elements/1.1/"
   xmlns:cc="http://creativecommons.org/ns#"
   xmlns:rdf="http://www.w3.org/1999/02/22-rdf-syntax-ns#"
   xmlns:svg="http://www.w3.org/2000/svg"
   xmlns="http://www.w3.org/2000/svg"
   xmlns:sodipodi="http://sodipodi.sourceforge.net/DTD/sodipodi-0.dtd"
   xmlns:inkscape="http://www.inkscape.org/namespaces/inkscape"
   width="1368.5016"
   height="919"
   id="svg2"
   version="1.1"
   inkscape:version="0.48.4 r9939"
   sodipodi:docname="New document 1">
  <defs
     id="defs4" />
  <sodipodi:namedview
     id="base"
     pagecolor="#ffffff"
     bordercolor="#666666"
     borderopacity="1.0"
     inkscape:pageopacity="0.0"
     inkscape:pageshadow="2"
     inkscape:zoom="0.35"
     inkscape:cx="-198.56983"
     inkscape:cy="471.86443"
     inkscape:document-units="px"
     inkscape:current-layer="layer1"
     showgrid="false"
     fit-margin-top="0"
     fit-margin-left="0"
     fit-margin-right="0"
     fit-margin-bottom="0"
     inkscape:window-width="1366"
     inkscape:window-height="716"
     inkscape:window-x="-8"
     inkscape:window-y="-8"
     inkscape:window-maximized="1" />
  <metadata
     id="metadata7">
    <rdf:RDF>
      <cc:Work
         rdf:about="">
        <dc:format>image/svg+xml</dc:format>
        <dc:type
           rdf:resource="http://purl.org/dc/dcmitype/StillImage" />
        <dc:title></dc:title>
      </cc:Work>
    </rdf:RDF>
  </metadata>
  <g
     inkscape:label="Layer 1"
     inkscape:groupmode="layer"
     id="layer1"
     transform="translate(-976.0625,2.71875)">
    <g
       id="g4032">
      <path
         id="path3000"
         d="m 976.0625,-2.71875 0,206.5 0,206.5 88.5,0 88.5,0 0,-117.5 0,-117.5 79.5,0 79.5,0 0,-89 0,-89 -168,0 -168,0 z m 456,0 0,1.5 0,1.5 -1.5,0 -1.5,0 0,202.5 0,202.5 201.5,0 201.5,0 0,79.5 0,79.5 2.5,0 2.5,0 0,-79.5 0,-79.5 47,0 46.9687,0 0.2813,-26.75 0.25,-26.75 36.5,0 36.5,0 0.5,27.3125 0.4687,25.5 275.5313,0 0,-88.8125 0,-89.5 -47,0 -47,0 0,-38 0,-38 27,0 27,0 0,-76.5 0,-76.5 -244.5,0 -244.5,0 0,101 0,101 -85,0 -85,0 0,-101 0,-101 -75,0 -75,0 z m -451,4 163,0 163,0 0,85 0,85 -79.5,0 -79.5,0 0,117 0,117 -83.5,0 -77.09375,0 c -0.28045,0.0327 -0.54907,0.0292 -0.78125,0 l -5.625,0 0,-202 0,-202 z m 453,1 71.5,0 71.5,0 0,100.5 0,100.5 90,0 90,0 0,-100.5 0,-100.5 239.5,0 239.5,0 0,71.5 0,71.5 -27,0 -27,0 0,42.5 0,42.5 47,0 47,0 0,85 0,85 -130.5,0 -130.5,0 0,-25.78125 0,-20.59375 -6.3437,-6.375 -81.6563,0 0,26.25 0,26.5 -246.5,0 -246.5,0 0,-199 0,-199 z m -189.4375,7.8125 c -0.2105,0.04127 -0.4601,0.106541 -0.6875,0.15625 0.044,0.006 0.079,0.03125 0.125,0.03125 0.2098,0 0.3969,-0.07929 0.5625,-0.1875 z m -171.75,4 c 0.026,0.08166 0.038,0.109534 0.062,0.1875 l 0.094,0 c -0.054,-0.05847 -0.098,-0.131201 -0.1562,-0.1875 z m -50.7812,0.96875 c -0.07,0.06556 -0.1229,0.14862 -0.1563,0.21875 l 0.25,0 c -0.034,-0.07176 -0.06,-0.147065 -0.094,-0.21875 z m 172.9687,74.53125 0,0.0625 c 0.2024,0.03527 0.4461,0.101741 0.5937,0.15625 -0.1884,-0.09745 -0.3834,-0.17451 -0.5937,-0.21875 z m -196,25.0625 c -0.0819,0.20893 -0.16811,0.41607 -0.25,0.625 l 0.25,0 0,-0.625 z m 138.3125,157.6875 c 0.2167,0.34493 0.425,0.69664 0.6562,1.03125 0.01,-0.0342 0.031,-0.0587 0.031,-0.0937 0,-0.43676 -0.2952,-0.80214 -0.6875,-0.9375 z m 857.3125,103.9375 c -4.5622,0 -12.4087,0.29929 -17.4375,0.65625 l -9.1562,0.65625 6.5937,12.59375 c 3.6347,6.93054 6.8535,12.97708 7.125,13.4375 l 0.5,0.84375 0.8125,-0.84375 c 0.4475,-0.46042 5.0754,-6.80625 10.3125,-14.09375 l 9.5313,-13.25 -8.2813,0 z m -1017.625,76 0,88 0,88 206.5,0 206.5,0 0,-88 0,-88 -206.5,0 -206.5,0 z m 479,0 0,88 0,88 74.5,0 74.5,0 0,-88 0,-88 -74.5,0 -74.5,0 z m -475,4 202,0 202,0 0,84 0,84 -202,0 -202,0 0,-84 0,-84 z m 480,0 70,0 70,0 0,84 0,84 -70,0 -70,0 0,-84 0,-84 z m 374,173 0,1.5 0,1.5 -1.5,0 -1.5,0 0,48 0,48 47.5,0 47.5,0 0,94 0,94 177,0 177,0 0,-143.5 0,-143.5 -223,0 -223,0 z m 2,5 219.5,0 219.5,0 0,138.5 0,138.5 -172.5,0 -172.5,0 0,-94 0,-94 -47,0 -47,0 0,-44.5 0,-44.5 z"
         style="fill:#000000"
         inkscape:connector-curvature="0" />
      <flowRoot
         transform="translate(13.571429,17.5)"
         style="font-size:40px;font-style:normal;font-weight:normal;line-height:125%;letter-spacing:0px;word-spacing:0px;fill:#000000;fill-opacity:1;stroke:none;font-family:Sans"
         id="flowRoot3112"
         xml:space="preserve"><flowRegion
           id="flowRegion3114"><rect
             y="50.219322"
             x="1066.4286"
             height="90.714287"
             width="196.78572"
             id="rect3116" /></flowRegion><flowPara
           id="flowPara3118">Banks</flowPara></flowRoot>      <flowRoot
         transform="translate(-5.5558348,-5.555839)"
         style="font-size:40px;font-style:normal;font-weight:normal;text-align:center;line-height:125%;letter-spacing:0px;word-spacing:0px;text-anchor:middle;fill:#000000;fill-opacity:1;stroke:none;font-family:Sans"
         id="flowRoot3120"
         xml:space="preserve"><flowRegion
           id="flowRegion3122"><rect
             style="text-align:center;text-anchor:middle"
             y="259.39243"
             x="1154.0992"
             height="108.5914"
             width="273.75134"
             id="rect3124" /></flowRegion><flowPara
           id="flowPara3126">Guild</flowPara><flowPara
           id="flowPara3128">Courtyard</flowPara></flowRoot>      <rect
         y="345.2554"
         x="2003.1324"
         height="61.114227"
         width="15.152288"
         id="rect3146"
         style="fill:none;stroke-width:4.5;stroke-miterlimit:4;stroke-dasharray:18, 18;stroke-dashoffset:0" />
      <rect
         y="343.74017"
         x="2002.88"
         height="61.366768"
         width="18.940361"
         id="rect3148"
         style="fill:none;stroke-width:4.5;stroke-miterlimit:4;stroke-dasharray:18, 18;stroke-dashoffset:0" />
      <flowRoot
         style="font-size:32px;font-style:normal;font-weight:normal;text-align:center;line-height:125%;letter-spacing:0px;word-spacing:0px;text-anchor:middle;fill:#000000;fill-opacity:1;stroke:none;font-family:Sans"
         id="flowRoot3159"
         xml:space="preserve"><flowRegion
           id="flowRegion3161"><rect
             style="font-size:32px;text-align:center;text-anchor:middle"
             y="53.321312"
             x="1434.4166"
             height="111.11678"
             width="142.43126"
             id="rect3163" /></flowRegion><flowPara
           id="flowPara3165">Student</flowPara><flowPara
           id="flowPara3167">Services</flowPara></flowRoot>      <flowRoot
         style="font-size:40px;font-style:normal;font-weight:normal;text-align:center;line-height:125%;letter-spacing:0px;word-spacing:0px;text-anchor:middle;fill:#000000;fill-opacity:1;stroke:none;font-family:Sans"
         id="flowRoot3169"
         xml:space="preserve"><flowRegion
           id="flowRegion3171"><rect
             style="text-align:center;text-anchor:middle"
             y="22.006586"
             x="1755.6451"
             height="97.984795"
             width="480.83261"
             id="rect3173" /></flowRegion><flowPara
           id="flowPara3175">Refectory</flowPara></flowRoot>      <flowRoot
         style="font-size:40px;font-style:normal;font-weight:normal;text-align:center;line-height:125%;letter-spacing:0px;word-spacing:0px;text-anchor:middle;fill:#000000;fill-opacity:1;stroke:none;font-family:Sans"
         id="flowRoot3177"
         xml:space="preserve"><flowRegion
           id="flowRegion3179"><rect
             style="text-align:center;text-anchor:middle"
             y="274.54474"
             x="2009.1935"
             height="126.26913"
             width="267.69077"
             id="rect3181" /></flowRegion><flowPara
           id="flowPara3183">The Tav</flowPara></flowRoot>      <flowRoot
         transform="translate(-110.10663,21.213203)"
         style="font-size:40px;font-style:normal;font-weight:normal;text-align:center;line-height:125%;letter-spacing:0px;word-spacing:0px;text-anchor:middle;fill:#000000;fill-opacity:1;stroke:none;font-family:Sans"
         id="flowRoot3188"
         xml:space="preserve"><flowRegion
           id="flowRegion3190"><rect
             style="text-align:center;text-anchor:middle"
             y="415.96606"
             x="1923.3304"
             height="166.675"
             width="338.40097"
             id="rect3192" /></flowRegion><flowPara
           id="flowPara3196">UCC</flowPara><flowPara
           style="font-size:24px"
           id="flowPara3200">(Upstairs)</flowPara></flowRoot>      <path
         inkscape:connector-curvature="0"
         id="path3207"
         d="m 1976.8685,389.70211 c -133.3401,65.65992 -101.0152,145.46197 -60.6091,145.46197 40.4061,0 428.3047,0 428.3047,0"
         style="fill:none;stroke:#000000;stroke-width:3;stroke-linecap:butt;stroke-linejoin:miter;stroke-miterlimit:4;stroke-opacity:1;stroke-dasharray:12, 12;stroke-dashoffset:0" />
      <flowRoot
         style="font-size:40px;font-style:normal;font-weight:normal;text-align:center;line-height:125%;letter-spacing:0px;word-spacing:0px;text-anchor:middle;fill:#000000;fill-opacity:1;stroke:none;font-family:Sans"
         id="flowRoot3983"
         xml:space="preserve"><flowRegion
           id="flowRegion3985"><rect
             style="text-align:center;text-anchor:middle"
             y="726.64789"
             x="1931.4286"
             height="130"
             width="347.85715"
             id="rect3987" /></flowRegion><flowPara
           id="flowPara3989">Shenton</flowPara><flowPara
           id="flowPara3991">House</flowPara></flowRoot>      <flowRoot
         style="font-size:32px;font-style:normal;font-weight:normal;text-align:center;line-height:125%;letter-spacing:0px;word-spacing:0px;text-anchor:middle;fill:#000000;fill-opacity:1;stroke:none;font-family:Sans"
         id="flowRoot4011"
         xml:space="preserve"><flowRegion
           id="flowRegion4013"><rect
             style="font-size:32px;text-align:center;text-anchor:middle"
             y="509.91028"
             x="1461.6907"
             height="75.761383"
             width="139.90695"
             id="rect4015" /></flowRegion><flowPara
           id="flowPara4017">Student</flowPara><flowPara
           id="flowPara4019">Services</flowPara></flowRoot>      <flowRoot
         style="font-size:40px;font-style:normal;font-weight:normal;text-align:center;line-height:125%;letter-spacing:0px;word-spacing:0px;text-anchor:middle;fill:#000000;fill-opacity:1;stroke:none;font-family:Sans"
         id="flowRoot4024"
         xml:space="preserve"><flowRegion
           id="flowRegion4026"><rect
             style="text-align:center;text-anchor:middle"
             y="514.961"
             x="981.36316"
             height="64.649696"
             width="406.58603"
             id="rect4028" /></flowRegion><flowPara
           id="flowPara4030">Cafe</flowPara></flowRoot>    </g>
  </g>
</svg>
